<svg xmlns="http://www.w3.org/2000/svg" xmlns:xlink="http://www.w3.org/1999/xlink" width="400" height="248" viewBox="0 0 400 248">
  <defs>
    <clipPath id="clip-_08_Dashboard">
      <rect width="400" height="248"/>
    </clipPath>
  </defs>
  <g id="_08_Dashboard" data-name="08_Dashboard" clip-path="url(#clip-_08_Dashboard)">
    <rect width="400" height="248" fill="#fff"/>
    <g id="Rectangle_80" data-name="Rectangle 80" fill="#fff" stroke="#ebebef" stroke-width="1">
      <rect width="400" height="248" stroke="none"/>
      <rect x="0.5" y="0.5" width="399" height="247" fill="none"/>
    </g>
    <rect id="Rectangle_31" data-name="Rectangle 31" width="90" height="188" rx="2" transform="translate(25 30)" fill="#eaebed"/>
    <rect id="Rectangle_33" data-name="Rectangle 33" width="64" height="6" rx="3" transform="translate(35 44)" fill="#d7d9de"/>
    <rect id="Rectangle_39" data-name="Rectangle 39" width="64" height="6" rx="3" transform="translate(35 92)" fill="#d7d9de"/>
    <rect id="Rectangle_35" data-name="Rectangle 35" width="64" height="6" rx="3" transform="translate(35 60)" fill="#d7d9de"/>
    <rect id="Rectangle_38" data-name="Rectangle 38" width="64" height="6" rx="3" transform="translate(35 108)" fill="#d7d9de"/>
    <rect id="Rectangle_41" data-name="Rectangle 41" width="64" height="6" rx="3" transform="translate(35 140)" fill="#d7d9de"/>
    <rect id="Rectangle_42" data-name="Rectangle 42" width="70" height="18" rx="2" transform="translate(35 166)" fill="#d7d9de"/>
    <rect id="Rectangle_43" data-name="Rectangle 43" width="70" height="18" rx="2" transform="translate(35 190)" fill="#d7d9de"/>
    <rect id="Rectangle_36" data-name="Rectangle 36" width="64" height="6" rx="3" transform="translate(35 76)" fill="#d7d9de"/>
    <rect id="Rectangle_37" data-name="Rectangle 37" width="64" height="6" rx="3" transform="translate(35 124)" fill="#d7d9de"/>
    <rect id="Rectangle_30" data-name="Rectangle 30" width="250" height="152" rx="2" transform="translate(125 66)" fill="#eaebed"/>
    <rect id="Rectangle_1" data-name="Rectangle 1" width="250" height="26" rx="2" transform="translate(125 30)" fill="#eaebed"/>
    <rect id="Rectangle_9" data-name="Rectangle 9" width="26" height="5" rx="2.5" transform="translate(135 40)" fill="#d7d9de"/>
    <rect id="Rectangle_10" data-name="Rectangle 10" width="26" height="5" rx="2.5" transform="translate(166 40)" fill="#d7d9de"/>
    <rect id="Rectangle_11" data-name="Rectangle 11" width="26" height="5" rx="2.5" transform="translate(197 40)" fill="#d7d9de"/>
    <rect id="Rectangle_12" data-name="Rectangle 12" width="26" height="5" rx="2.5" transform="translate(228 40)" fill="#d7d9de"/>
    <rect id="Rectangle_13" data-name="Rectangle 13" width="66" height="14" rx="7" transform="translate(299 36)" fill="#d7d9de"/>
    <rect id="Rectangle_1459" data-name="Rectangle 1459" width="24" height="24" rx="3" transform="translate(135 78)" fill="#d7d9de"/>
    <rect id="Rectangle_1459-2" data-name="Rectangle 1459" width="24" height="24" rx="3" transform="translate(135 110)" fill="#d7d9de"/>
    <rect id="Rectangle_1459-3" data-name="Rectangle 1459" width="24" height="24" rx="3" transform="translate(135 142)" fill="#d7d9de"/>
    <rect id="Rectangle_1459-4" data-name="Rectangle 1459" width="24" height="24" rx="3" transform="translate(135 174)" fill="#d7d9de"/>
    <path id="Path_4425" data-name="Path 4425" d="M20.979,8H9.021A1.142,1.142,0,0,0,8,9.225v8.051A1.143,1.143,0,0,0,9.021,18.5H20.98A1.143,1.143,0,0,0,22,17.275V9.225A1.142,1.142,0,0,0,20.979,8Zm.145,4.543-1.341-1.435a.906.906,0,0,0-1.4.049l-3.266,3.927-.186.042A.119.119,0,0,1,14.9,15.1L12.79,12.57a.9.9,0,0,0-1.418-.035l-2.5,2.773V9.225a.16.16,0,0,1,.145-.174H20.98a.16.16,0,0,1,.145.174Z" transform="translate(132 77)" fill="#a1a7b2"/>
    <path id="Path_4425-2" data-name="Path 4425" d="M20.979,8H9.021A1.142,1.142,0,0,0,8,9.225v8.051A1.143,1.143,0,0,0,9.021,18.5H20.98A1.143,1.143,0,0,0,22,17.275V9.225A1.142,1.142,0,0,0,20.979,8Zm.145,4.543-1.341-1.435a.906.906,0,0,0-1.4.049l-3.266,3.927-.186.042A.119.119,0,0,1,14.9,15.1L12.79,12.57a.9.9,0,0,0-1.418-.035l-2.5,2.773V9.225a.16.16,0,0,1,.145-.174H20.98a.16.16,0,0,1,.145.174Z" transform="translate(132 109)" fill="#a1a7b2"/>
    <path id="Path_4425-3" data-name="Path 4425" d="M20.979,8H9.021A1.142,1.142,0,0,0,8,9.225v8.051A1.143,1.143,0,0,0,9.021,18.5H20.98A1.143,1.143,0,0,0,22,17.275V9.225A1.142,1.142,0,0,0,20.979,8Zm.145,4.543-1.341-1.435a.906.906,0,0,0-1.4.049l-3.266,3.927-.186.042A.119.119,0,0,1,14.9,15.1L12.79,12.57a.9.9,0,0,0-1.418-.035l-2.5,2.773V9.225a.16.16,0,0,1,.145-.174H20.98a.16.16,0,0,1,.145.174Z" transform="translate(132 141)" fill="#a1a7b2"/>
    <path id="Path_4425-4" data-name="Path 4425" d="M20.979,8H9.021A1.142,1.142,0,0,0,8,9.225v8.051A1.143,1.143,0,0,0,9.021,18.5H20.98A1.143,1.143,0,0,0,22,17.275V9.225A1.142,1.142,0,0,0,20.979,8Zm.145,4.543-1.341-1.435a.906.906,0,0,0-1.4.049l-3.266,3.927-.186.042A.119.119,0,0,1,14.9,15.1L12.79,12.57a.9.9,0,0,0-1.418-.035l-2.5,2.773V9.225a.16.16,0,0,1,.145-.174H20.98a.16.16,0,0,1,.145.174Z" transform="translate(132 173)" fill="#a1a7b2"/>
    <rect id="Rectangle_44" data-name="Rectangle 44" width="50" height="5" rx="2.5" transform="translate(166 88)" fill="#d7d9de"/>
    <rect id="Rectangle_48" data-name="Rectangle 48" width="50" height="5" rx="2.5" transform="translate(166 120)" fill="#d7d9de"/>
    <rect id="Rectangle_52" data-name="Rectangle 52" width="50" height="5" rx="2.5" transform="translate(166 152)" fill="#d7d9de"/>
    <rect id="Rectangle_56" data-name="Rectangle 56" width="50" height="5" rx="2.5" transform="translate(166 184)" fill="#d7d9de"/>
    <rect id="Rectangle_45" data-name="Rectangle 45" width="30" height="5" rx="2.5" transform="translate(236 88)" fill="#d7d9de"/>
    <rect id="Rectangle_49" data-name="Rectangle 49" width="30" height="5" rx="2.5" transform="translate(236 120)" fill="#d7d9de"/>
    <rect id="Rectangle_53" data-name="Rectangle 53" width="30" height="5" rx="2.5" transform="translate(236 152)" fill="#d7d9de"/>
    <rect id="Rectangle_57" data-name="Rectangle 57" width="30" height="5" rx="2.5" transform="translate(236 184)" fill="#d7d9de"/>
    <rect id="Rectangle_46" data-name="Rectangle 46" width="30" height="5" rx="2.5" transform="translate(286 88)" fill="#d7d9de"/>
    <rect id="Rectangle_50" data-name="Rectangle 50" width="30" height="5" rx="2.5" transform="translate(286 120)" fill="#d7d9de"/>
    <rect id="Rectangle_54" data-name="Rectangle 54" width="30" height="5" rx="2.5" transform="translate(286 152)" fill="#d7d9de"/>
    <rect id="Rectangle_58" data-name="Rectangle 58" width="30" height="5" rx="2.5" transform="translate(286 184)" fill="#d7d9de"/>
    <rect id="Rectangle_47" data-name="Rectangle 47" width="30" height="5" rx="2.5" transform="translate(326 88)" fill="#d7d9de"/>
    <rect id="Rectangle_51" data-name="Rectangle 51" width="30" height="5" rx="2.5" transform="translate(326 120)" fill="#d7d9de"/>
    <rect id="Rectangle_55" data-name="Rectangle 55" width="30" height="5" rx="2.5" transform="translate(326 152)" fill="#d7d9de"/>
    <rect id="Rectangle_59" data-name="Rectangle 59" width="30" height="5" rx="2.5" transform="translate(326 184)" fill="#d7d9de"/>
  </g>
</svg>
