<svg xmlns="http://www.w3.org/2000/svg" xmlns:xlink="http://www.w3.org/1999/xlink" width="400" height="400" viewBox="0 0 400 400">
  <defs>
    <clipPath id="clip-_02_All_Listings">
      <rect width="400" height="400"/>
    </clipPath>
  </defs>
  <g id="_02_All_Listings" data-name="02_All Listings" clip-path="url(#clip-_02_All_Listings)">
    <rect width="400" height="400" fill="#fff"/>
    <g id="Rectangle_80" data-name="Rectangle 80" fill="#fff" stroke="#ebebef" stroke-width="1">
      <rect width="400" height="400" stroke="none"/>
      <rect x="0.5" y="0.5" width="399" height="399" fill="none"/>
    </g>
    <rect id="Rectangle_1" data-name="Rectangle 1" width="350" height="30" rx="2" transform="translate(25 54)" fill="#eaebed"/>
    <g id="Group_20" data-name="Group 20">
      <rect id="Rectangle_9" data-name="Rectangle 9" width="40" height="6" rx="3" transform="translate(25 33)" fill="#eaebed"/>
      <rect id="Rectangle_10" data-name="Rectangle 10" width="40" height="6" rx="3" transform="translate(75 33)" fill="#eaebed"/>
      <rect id="Rectangle_11" data-name="Rectangle 11" width="40" height="6" rx="3" transform="translate(125 33)" fill="#eaebed"/>
      <rect id="Rectangle_12" data-name="Rectangle 12" width="40" height="6" rx="3" transform="translate(175 33)" fill="#eaebed"/>
      <rect id="Rectangle_13" data-name="Rectangle 13" width="40" height="6" rx="3" transform="translate(225 33)" fill="#eaebed"/>
    </g>
    <g id="Group_9" data-name="Group 9">
      <rect id="Rectangle_1459" data-name="Rectangle 1459" width="107.877" height="74.615" rx="3" transform="translate(25 98)" fill="#eaebed"/>
      <rect id="Rectangle_1461" data-name="Rectangle 1461" width="70" height="6.293" rx="1" transform="translate(25 208)" fill="#eaebed"/>
      <rect id="Rectangle_1465" data-name="Rectangle 1465" width="107.877" height="6.293" rx="1" transform="translate(25 182.675)" fill="#eaebed"/>
      <rect id="Rectangle_1462" data-name="Rectangle 1462" width="90" height="6.293" rx="1" transform="translate(25 195.09)" fill="#eaebed"/>
      <path id="Path_4425" data-name="Path 4425" d="M52.647,8H11.513C9.586,8,8,9.9,8,12.215V39.909c0,2.308,1.586,4.212,3.513,4.212H52.65c1.923,0,3.51-1.9,3.51-4.215V12.215C56.16,9.9,54.574,8,52.647,8Zm.5,15.629-4.614-4.938a3.118,3.118,0,0,0-4.816.17L32.483,32.37l-.641.144a.409.409,0,0,1-.12-.1L24.477,23.72A3.1,3.1,0,0,0,19.6,23.6l-8.59,9.54V12.215a.552.552,0,0,1,.5-.6H52.65a.552.552,0,0,1,.5.6Z" transform="translate(47 109)" fill="#d7d9de"/>
      <rect id="Rectangle_1459-2" data-name="Rectangle 1459" width="107.877" height="74.615" rx="3" transform="translate(25 239)" fill="#eaebed"/>
      <rect id="Rectangle_1461-2" data-name="Rectangle 1461" width="70" height="6.293" rx="1" transform="translate(25 349)" fill="#eaebed"/>
      <rect id="Rectangle_1465-2" data-name="Rectangle 1465" width="107.877" height="6.293" rx="1" transform="translate(25 323.675)" fill="#eaebed"/>
      <rect id="Rectangle_1462-2" data-name="Rectangle 1462" width="90" height="6.293" rx="1" transform="translate(25 336.09)" fill="#eaebed"/>
      <path id="Path_4425-2" data-name="Path 4425" d="M52.647,8H11.513C9.586,8,8,9.9,8,12.215V39.909c0,2.308,1.586,4.212,3.513,4.212H52.65c1.923,0,3.51-1.9,3.51-4.215V12.215C56.16,9.9,54.574,8,52.647,8Zm.5,15.629-4.614-4.938a3.118,3.118,0,0,0-4.816.17L32.483,32.37l-.641.144a.409.409,0,0,1-.12-.1L24.477,23.72A3.1,3.1,0,0,0,19.6,23.6l-8.59,9.54V12.215a.552.552,0,0,1,.5-.6H52.65a.552.552,0,0,1,.5.6Z" transform="translate(47 250)" fill="#d7d9de"/>
      <rect id="Rectangle_1459-3" data-name="Rectangle 1459" width="107.877" height="74.615" rx="3" transform="translate(146 98)" fill="#eaebed"/>
      <rect id="Rectangle_1461-3" data-name="Rectangle 1461" width="70" height="6.293" rx="1" transform="translate(146 208)" fill="#eaebed"/>
      <rect id="Rectangle_1465-3" data-name="Rectangle 1465" width="107.877" height="6.293" rx="1" transform="translate(146 182.675)" fill="#eaebed"/>
      <rect id="Rectangle_1462-3" data-name="Rectangle 1462" width="90" height="6.293" rx="1" transform="translate(146 195.09)" fill="#eaebed"/>
      <path id="Path_4425-3" data-name="Path 4425" d="M52.647,8H11.513C9.586,8,8,9.9,8,12.215V39.909c0,2.308,1.586,4.212,3.513,4.212H52.65c1.923,0,3.51-1.9,3.51-4.215V12.215C56.16,9.9,54.574,8,52.647,8Zm.5,15.629-4.614-4.938a3.118,3.118,0,0,0-4.816.17L32.483,32.37l-.641.144a.409.409,0,0,1-.12-.1L24.477,23.72A3.1,3.1,0,0,0,19.6,23.6l-8.59,9.54V12.215a.552.552,0,0,1,.5-.6H52.65a.552.552,0,0,1,.5.6Z" transform="translate(168 109)" fill="#d7d9de"/>
      <rect id="Rectangle_1459-4" data-name="Rectangle 1459" width="107.877" height="74.615" rx="3" transform="translate(146 239)" fill="#eaebed"/>
      <rect id="Rectangle_1461-4" data-name="Rectangle 1461" width="70" height="6.293" rx="1" transform="translate(146 349)" fill="#eaebed"/>
      <rect id="Rectangle_1465-4" data-name="Rectangle 1465" width="107.877" height="6.293" rx="1" transform="translate(146 323.675)" fill="#eaebed"/>
      <rect id="Rectangle_1462-4" data-name="Rectangle 1462" width="90" height="6.293" rx="1" transform="translate(146 336.09)" fill="#eaebed"/>
      <path id="Path_4425-4" data-name="Path 4425" d="M52.647,8H11.513C9.586,8,8,9.9,8,12.215V39.909c0,2.308,1.586,4.212,3.513,4.212H52.65c1.923,0,3.51-1.9,3.51-4.215V12.215C56.16,9.9,54.574,8,52.647,8Zm.5,15.629-4.614-4.938a3.118,3.118,0,0,0-4.816.17L32.483,32.37l-.641.144a.409.409,0,0,1-.12-.1L24.477,23.72A3.1,3.1,0,0,0,19.6,23.6l-8.59,9.54V12.215a.552.552,0,0,1,.5-.6H52.65a.552.552,0,0,1,.5.6Z" transform="translate(168 250)" fill="#d7d9de"/>
      <rect id="Rectangle_1459-5" data-name="Rectangle 1459" width="107.877" height="74.615" rx="3" transform="translate(267 98)" fill="#eaebed"/>
      <rect id="Rectangle_1461-5" data-name="Rectangle 1461" width="70" height="6.293" rx="1" transform="translate(267 208)" fill="#eaebed"/>
      <rect id="Rectangle_1465-5" data-name="Rectangle 1465" width="107.877" height="6.293" rx="1" transform="translate(267 182.675)" fill="#eaebed"/>
      <rect id="Rectangle_1462-5" data-name="Rectangle 1462" width="90" height="6.293" rx="1" transform="translate(267 195.09)" fill="#eaebed"/>
      <path id="Path_4425-5" data-name="Path 4425" d="M52.647,8H11.513C9.586,8,8,9.9,8,12.215V39.909c0,2.308,1.586,4.212,3.513,4.212H52.65c1.923,0,3.51-1.9,3.51-4.215V12.215C56.16,9.9,54.574,8,52.647,8Zm.5,15.629-4.614-4.938a3.118,3.118,0,0,0-4.816.17L32.483,32.37l-.641.144a.409.409,0,0,1-.12-.1L24.477,23.72A3.1,3.1,0,0,0,19.6,23.6l-8.59,9.54V12.215a.552.552,0,0,1,.5-.6H52.65a.552.552,0,0,1,.5.6Z" transform="translate(289 109)" fill="#d7d9de"/>
      <rect id="Rectangle_1459-6" data-name="Rectangle 1459" width="107.877" height="74.615" rx="3" transform="translate(267 239)" fill="#eaebed"/>
      <rect id="Rectangle_1461-6" data-name="Rectangle 1461" width="70" height="6.293" rx="1" transform="translate(267 349)" fill="#eaebed"/>
      <rect id="Rectangle_1465-6" data-name="Rectangle 1465" width="107.877" height="6.293" rx="1" transform="translate(267 323.675)" fill="#eaebed"/>
      <rect id="Rectangle_1462-6" data-name="Rectangle 1462" width="90" height="6.293" rx="1" transform="translate(267 336.09)" fill="#eaebed"/>
      <path id="Path_4425-6" data-name="Path 4425" d="M52.647,8H11.513C9.586,8,8,9.9,8,12.215V39.909c0,2.308,1.586,4.212,3.513,4.212H52.65c1.923,0,3.51-1.9,3.51-4.215V12.215C56.16,9.9,54.574,8,52.647,8Zm.5,15.629-4.614-4.938a3.118,3.118,0,0,0-4.816.17L32.483,32.37l-.641.144a.409.409,0,0,1-.12-.1L24.477,23.72A3.1,3.1,0,0,0,19.6,23.6l-8.59,9.54V12.215a.552.552,0,0,1,.5-.6H52.65a.552.552,0,0,1,.5.6Z" transform="translate(289 250)" fill="#d7d9de"/>
    </g>
  </g>
</svg>
