<svg xmlns="http://www.w3.org/2000/svg" xmlns:xlink="http://www.w3.org/1999/xlink" width="400" height="310" viewBox="0 0 400 310">
  <defs>
    <clipPath id="clip-_05_Pricing_Plans">
      <rect width="400" height="310"/>
    </clipPath>
  </defs>
  <g id="_05_Pricing_Plans" data-name="05_Pricing Plans" clip-path="url(#clip-_05_Pricing_Plans)">
    <rect width="400" height="310" fill="#fff"/>
    <g id="Rectangle_80" data-name="Rectangle 80" fill="#fff" stroke="#ebebef" stroke-width="1">
      <rect width="400" height="310" stroke="none"/>
      <rect x="0.5" y="0.5" width="399" height="309" fill="none"/>
    </g>
    <g id="Group_17" data-name="Group 17">
      <rect id="Rectangle_11" data-name="Rectangle 11" width="110" height="250" rx="4" transform="translate(25 30)" fill="#eaebed"/>
      <rect id="Rectangle_14" data-name="Rectangle 14" width="80" height="5" rx="2.5" transform="translate(40 121)" fill="#d7d9de"/>
      <rect id="Rectangle_18" data-name="Rectangle 18" width="50" height="5" rx="2.5" transform="translate(40 106)" fill="#d7d9de"/>
      <rect id="Rectangle_15" data-name="Rectangle 15" width="69" height="5" rx="2.5" transform="translate(40 137)" fill="#d7d9de"/>
      <rect id="Rectangle_15-2" data-name="Rectangle 15" width="69" height="5" rx="2.5" transform="translate(40 182)" fill="#d7d9de"/>
      <rect id="Rectangle_20" data-name="Rectangle 20" width="69" height="5" rx="2.5" transform="translate(40 167)" fill="#d7d9de"/>
      <rect id="Rectangle_20-2" data-name="Rectangle 20" width="69" height="5" rx="2.5" transform="translate(40 212)" fill="#d7d9de"/>
      <rect id="Rectangle_16" data-name="Rectangle 16" width="52" height="5" rx="2.5" transform="translate(40 152)" fill="#d7d9de"/>
      <rect id="Rectangle_16-2" data-name="Rectangle 16" width="52" height="5" rx="2.5" transform="translate(40 197)" fill="#d7d9de"/>
      <rect id="Rectangle_19" data-name="Rectangle 19" width="80" height="25" rx="3" transform="translate(40 240)" fill="#d7d9de"/>
      <rect id="Rectangle_13" data-name="Rectangle 13" width="80" height="45" rx="4" transform="translate(40 45)" fill="#d7d9de"/>
      <g id="Group_4253" data-name="Group 4253" transform="translate(63.513 57.063)">
        <text id="_49" data-name="49" transform="translate(9.487 19.937)" fill="#7f858b" font-size="20" font-family="BergenNeue-SemiBold, Bergen Neue" font-weight="600" letter-spacing="0.03em"><tspan x="0" y="0">49</tspan></text>
        <text id="_" data-name="$" transform="translate(0.487 14.937)" fill="#7f858b" font-size="12" font-family="BergenNeue-Medium, Bergen Neue" font-weight="500" letter-spacing="0.01em"><tspan x="0" y="0">$</tspan></text>
      </g>
    </g>
    <g id="Group_18" data-name="Group 18" transform="translate(120)">
      <rect id="Rectangle_11-2" data-name="Rectangle 11" width="110" height="250" rx="4" transform="translate(25 30)" fill="#eaebed"/>
      <rect id="Rectangle_14-2" data-name="Rectangle 14" width="80" height="5" rx="2.5" transform="translate(40 121)" fill="#d7d9de"/>
      <rect id="Rectangle_18-2" data-name="Rectangle 18" width="50" height="5" rx="2.5" transform="translate(40 106)" fill="#d7d9de"/>
      <rect id="Rectangle_15-3" data-name="Rectangle 15" width="69" height="5" rx="2.5" transform="translate(40 137)" fill="#d7d9de"/>
      <rect id="Rectangle_15-4" data-name="Rectangle 15" width="69" height="5" rx="2.5" transform="translate(40 182)" fill="#d7d9de"/>
      <rect id="Rectangle_20-3" data-name="Rectangle 20" width="69" height="5" rx="2.5" transform="translate(40 167)" fill="#d7d9de"/>
      <rect id="Rectangle_20-4" data-name="Rectangle 20" width="69" height="5" rx="2.5" transform="translate(40 212)" fill="#d7d9de"/>
      <rect id="Rectangle_16-3" data-name="Rectangle 16" width="52" height="5" rx="2.5" transform="translate(40 152)" fill="#d7d9de"/>
      <rect id="Rectangle_16-4" data-name="Rectangle 16" width="52" height="5" rx="2.5" transform="translate(40 197)" fill="#d7d9de"/>
      <rect id="Rectangle_19-2" data-name="Rectangle 19" width="80" height="25" rx="3" transform="translate(40 240)" fill="#d7d9de"/>
      <rect id="Rectangle_13-2" data-name="Rectangle 13" width="80" height="45" rx="4" transform="translate(40 45)" fill="#d7d9de"/>
      <g id="Group_4253-2" data-name="Group 4253" transform="translate(63.513 57.063)">
        <text id="_49-2" data-name="49" transform="translate(9.487 19.937)" fill="#7f858b" font-size="20" font-family="BergenNeue-SemiBold, Bergen Neue" font-weight="600" letter-spacing="0.03em"><tspan x="0" y="0">49</tspan></text>
        <text id="_2" data-name="$" transform="translate(0.487 14.937)" fill="#7f858b" font-size="12" font-family="BergenNeue-Medium, Bergen Neue" font-weight="500" letter-spacing="0.01em"><tspan x="0" y="0">$</tspan></text>
      </g>
    </g>
    <g id="Group_19" data-name="Group 19" transform="translate(240)">
      <rect id="Rectangle_11-3" data-name="Rectangle 11" width="110" height="250" rx="4" transform="translate(25 30)" fill="#eaebed"/>
      <rect id="Rectangle_14-3" data-name="Rectangle 14" width="80" height="5" rx="2.5" transform="translate(40 121)" fill="#d7d9de"/>
      <rect id="Rectangle_18-3" data-name="Rectangle 18" width="50" height="5" rx="2.5" transform="translate(40 106)" fill="#d7d9de"/>
      <rect id="Rectangle_15-5" data-name="Rectangle 15" width="69" height="5" rx="2.5" transform="translate(40 137)" fill="#d7d9de"/>
      <rect id="Rectangle_15-6" data-name="Rectangle 15" width="69" height="5" rx="2.5" transform="translate(40 182)" fill="#d7d9de"/>
      <rect id="Rectangle_20-5" data-name="Rectangle 20" width="69" height="5" rx="2.5" transform="translate(40 167)" fill="#d7d9de"/>
      <rect id="Rectangle_20-6" data-name="Rectangle 20" width="69" height="5" rx="2.5" transform="translate(40 212)" fill="#d7d9de"/>
      <rect id="Rectangle_16-5" data-name="Rectangle 16" width="52" height="5" rx="2.5" transform="translate(40 152)" fill="#d7d9de"/>
      <rect id="Rectangle_16-6" data-name="Rectangle 16" width="52" height="5" rx="2.5" transform="translate(40 197)" fill="#d7d9de"/>
      <rect id="Rectangle_19-3" data-name="Rectangle 19" width="80" height="25" rx="3" transform="translate(40 240)" fill="#d7d9de"/>
      <rect id="Rectangle_13-3" data-name="Rectangle 13" width="80" height="45" rx="4" transform="translate(40 45)" fill="#d7d9de"/>
      <g id="Group_4253-3" data-name="Group 4253" transform="translate(63.513 57.063)">
        <text id="_49-3" data-name="49" transform="translate(9.487 19.937)" fill="#7f858b" font-size="20" font-family="BergenNeue-SemiBold, Bergen Neue" font-weight="600" letter-spacing="0.03em"><tspan x="0" y="0">49</tspan></text>
        <text id="_3" data-name="$" transform="translate(0.487 14.937)" fill="#7f858b" font-size="12" font-family="BergenNeue-Medium, Bergen Neue" font-weight="500" letter-spacing="0.01em"><tspan x="0" y="0">$</tspan></text>
      </g>
    </g>
  </g>
</svg>
