<svg xmlns="http://www.w3.org/2000/svg" xmlns:xlink="http://www.w3.org/1999/xlink" width="400" height="251" viewBox="0 0 400 251">
  <defs>
    <clipPath id="clip-_01_Sign_In_Form">
      <rect width="400" height="251"/>
    </clipPath>
  </defs>
  <g id="_01_Sign_In_Form" data-name="01_Sign In Form" clip-path="url(#clip-_01_Sign_In_Form)">
    <rect width="400" height="251" fill="#fff"/>
    <g id="Rectangle_80" data-name="Rectangle 80" fill="#fff" stroke="#ebebef" stroke-width="1">
      <rect width="400" height="251" stroke="none"/>
      <rect x="0.5" y="0.5" width="399" height="250" fill="none"/>
    </g>
    <g id="Group_1" data-name="Group 1" transform="translate(0 -76)">
      <rect id="Rectangle_1" data-name="Rectangle 1" width="350" height="30" rx="2" transform="translate(25 118)" fill="#eaebed"/>
      <rect id="Rectangle_4" data-name="Rectangle 4" width="350" height="30" rx="2" transform="translate(25 178)" fill="#eaebed"/>
      <rect id="Rectangle_2" data-name="Rectangle 2" width="90" height="6" rx="3" transform="translate(25 106)" fill="#eaebed"/>
      <rect id="Rectangle_3" data-name="Rectangle 3" width="90" height="6" rx="3" transform="translate(25 166)" fill="#eaebed"/>
      <rect id="Rectangle_6" data-name="Rectangle 6" width="80" height="6" transform="translate(47 271)" fill="#eaebed"/>
      <rect id="Rectangle_7" data-name="Rectangle 7" width="120" height="6" transform="translate(25 291)" fill="#eaebed"/>
      <rect id="Rectangle_5" data-name="Rectangle 5" width="83" height="30" rx="2" transform="translate(25 222)" fill="#eaebed"/>
      <rect id="Rectangle_8" data-name="Rectangle 8" width="14" height="14" rx="2" transform="translate(25 267)" fill="#eaebed"/>
      <path id="check" d="M12.795,7.083a.569.569,0,0,0-.808,0L7.746,11.329,5.964,9.542a.582.582,0,1,0-.808.837l2.186,2.186a.569.569,0,0,0,.808,0l4.645-4.645a.569.569,0,0,0,0-.837Z" transform="translate(23.022 264.086)" fill="#b5b5b5"/>
    </g>
  </g>
</svg>
