<svg xmlns="http://www.w3.org/2000/svg" width="14" height="12.007" viewBox="284 4 14 12.007"><g data-name="Group 2970"><path d="M284.841 9.02c.058-.009.116-.013.174-.012h9.876l-.215-.1c-.21-.1-.402-.236-.566-.401l-2.77-2.77a1.037 1.037 0 0 1-.145-1.327 1.002 1.002 0 0 1 1.503-.13l5.008 5.008a1.002 1.002 0 0 1 0 1.418l-5.008 5.008a1.002 1.002 0 0 1-1.503-.1c-.28-.419-.22-.98.145-1.327l2.765-2.775c.147-.147.316-.27.501-.366l.3-.135h-9.836a1.037 1.037 0 0 1-1.057-.841 1.002 1.002 0 0 1 .828-1.15Z" fill="#fff" fill-rule="evenodd" data-name="Path 1600"/></g></svg>