<svg xmlns="http://www.w3.org/2000/svg" width="58.999" height="58.999" viewBox="611.001 174.001 58.999 58.999"><g data-name="Group 2976"><path d="m658.324 217.969-44.67 14.927a2.013 2.013 0 0 1-2.549-2.548l14.927-44.671 32.292 32.292Z" fill="#fdc70e" fill-rule="evenodd" data-name="Path 1603"/><path d="M658.324 217.97s-6.579-1.49-18.684-13.606c-11.784-11.773-13.524-18.34-13.607-18.683v-.012s6.591 1.49 18.7 13.6c12.11 12.109 13.591 18.702 13.591 18.702Z" fill="#d39518" fill-rule="evenodd" data-name="Path 1604"/><path d="m629.457 227.614-6.62 2.21a107.26 107.26 0 0 1-4.45-4.21c-1.58-1.58-2.97-3.06-4.21-4.45l2.21-6.62c1.68 2.03 3.73 4.3 6.25 6.82 2.52 2.52 4.79 4.57 6.82 6.25Z" fill="#2167d8" fill-rule="evenodd" data-name="Path 1605"/><path d="m647.477 221.594-7.11 2.37a82.592 82.592 0 0 1-10.93-9.4 82.593 82.593 0 0 1-9.4-10.93l2.37-7.11a74.4 74.4 0 0 0 11.28 13.79 74.4 74.4 0 0 0 13.79 11.28Z" fill="#d3374e" fill-rule="evenodd" data-name="Path 1606"/><path d="M635.53 194.41a1 1 0 0 1-.707-1.707 12.2 12.2 0 0 0 2.36-14.675 1 1 0 1 1 1.714-1.024 14.247 14.247 0 0 1-2.66 17.118.993.993 0 0 1-.707.288Z" fill="#2167d8" fill-rule="evenodd" data-name="Path 1607"/><path d="M633.857 184.37a1 1 0 0 1-.707-.293l-1.674-1.673a1 1 0 0 1 1.415-1.414l1.673 1.673a1 1 0 0 1-.707 1.707Z" fill="#23af6f" fill-rule="evenodd" data-name="Path 1608"/><path d="M645.57 182.697a1 1 0 0 1-1-1v-1.673a1 1 0 0 1 2 0v1.673a1 1 0 0 1-1 1Z" fill="#d3374e" fill-rule="evenodd" data-name="Path 1609"/><path d="M647.244 189.39h-1.674a1 1 0 0 1 0-2h1.674a1 1 0 0 1 0 2Z" fill="#23af6f" fill-rule="evenodd" data-name="Path 1610"/><path d="M650.59 209.47a1 1 0 0 1-.707-1.706 14.248 14.248 0 0 1 17.12-2.66 1 1 0 0 1-1.028 1.715 12.067 12.067 0 0 0-14.678 2.359 1 1 0 0 1-.707.293Z" fill="#2167d8" fill-rule="evenodd" data-name="Path 1611"/><path d="M662.304 212.817a1 1 0 0 1-.707-.292l-1.674-1.674a1 1 0 1 1 1.414-1.414l1.674 1.673a1 1 0 0 1-.707 1.707Z" fill="#23af6f" fill-rule="evenodd" data-name="Path 1612"/><path d="M663.976 199.43h-1.672a1 1 0 0 1 0-2h1.672a1 1 0 0 1 0 2Z" fill="#d3374e" fill-rule="evenodd" data-name="Path 1613"/><path d="M655.61 199.43a1 1 0 0 1-1-1v-1.673a1 1 0 0 1 2 0v1.674a1 1 0 0 1-1 1Z" fill="#d3374e" fill-rule="evenodd" data-name="Path 1614"/><path d="M647.244 196.084a1 1 0 0 1-.707-1.707 4.061 4.061 0 0 1 3.216-1.128h.022a2.1 2.1 0 0 0 1.78-.542 2.119 2.119 0 0 0 .541-1.8 3.94 3.94 0 0 1 4.346-4.348 2 2 0 0 0 2.355-2.355 4.067 4.067 0 0 1 1.131-3.218 1 1 0 1 1 1.41 1.418 2.128 2.128 0 0 0-.546 1.8 3.942 3.942 0 0 1-4.349 4.349 1.993 1.993 0 0 0-2.346 2.35 4.054 4.054 0 0 1-1.128 3.217 4.105 4.105 0 0 1-3.216 1.128h-.023a2.094 2.094 0 0 0-1.778.542 1 1 0 0 1-.708.294Z" fill="#fdc70e" fill-rule="evenodd" data-name="Path 1615"/><g data-name="Group 2975"><path d="M650.591 184.37a1 1 0 0 1-.925-1.381 9.272 9.272 0 0 0 .042-7.515 1 1 0 1 1 1.764-.944 11.275 11.275 0 0 1 .044 9.22 1 1 0 0 1-.925.62Z" fill="#d3374e" fill-rule="evenodd" data-name="Path 1616"/><path d="M660.63 194.41a1 1 0 0 1-.38-1.925 11.266 11.266 0 0 1 9.221.044 1 1 0 0 1-.944 1.764 9.267 9.267 0 0 0-7.516.042c-.12.05-.25.075-.38.075Z" fill="#d3374e" fill-rule="evenodd" data-name="Path 1617"/></g></g></svg>