<?xml version="1.0" encoding="utf-8"?>
<!-- Generator: Adobe Illustrator 23.0.1, SVG Export Plug-In . SVG Version: 6.00 Build 0)  -->
<svg version="1.1" id="Layer_1" xmlns="http://www.w3.org/2000/svg" xmlns:xlink="http://www.w3.org/1999/xlink" x="0px" y="0px"
	 viewBox="0 0 747.8 221.7" style="enable-background:new 0 0 747.8 221.7;" xml:space="preserve">
<style type="text/css">
	.st0{fill:url(#SVGID_1_);}
	.st1{opacity:0.12;}
	.st2{fill:#FFFFFF;}
	.st3{fill:#3E62F5;}
	.st4{enable-background:new    ;}
	.st5{fill:#13141C;}
</style>
<g>
	
		<linearGradient id="SVGID_1_" gradientUnits="userSpaceOnUse" x1="42.9446" y1="836.0236" x2="149.9688" y2="644.0842" gradientTransform="matrix(1 0 0 1 0 -642.8871)">
		<stop  offset="0" style="stop-color:#2AE498"/>
		<stop  offset="1.117462e-02" style="stop-color:#2AE299"/>
		<stop  offset="0.4845" style="stop-color:#359DCA"/>
		<stop  offset="0.8263" style="stop-color:#3B72E9"/>
		<stop  offset="1" style="stop-color:#3E62F5"/>
	</linearGradient>
	<path class="st0" d="M132.8,5L132.8,5c-6.1,0-11.1,5-11.1,11.1v52.1C108.9,56,91.6,48.5,72.5,48.5C33,48.5,1,80.5,1,120
		s32,71.5,71.5,71.5c19.1,0,36.4-7.5,49.2-19.7v4.4c0,6.1,5,11.1,11.1,11.1l0,0c6.1,0,11.1-5,11.1-11.1V16.1
		C143.9,10,138.9,5,132.8,5z"/>
	<g>
		<g class="st1">
			<path d="M121.7,135.6v3.7c0,9.4-4,20.6-11.5,33c-4,6.6-9,13.5-14.9,20.5c-8.8,10.5-17.6,19.1-22.8,23.9
				c-5.2-4.8-14-13.3-22.7-23.7c-3.5-4.1-6.6-8.1-9.4-12.1c-0.3-0.4-0.6-0.8-0.8-1.1c-3.5-4.9-6.4-9.7-8.8-14.3
				c-0.1-0.2-0.2-0.4-0.3-0.6c-4.8-9.4-7.2-17.9-7.2-25.4v-3.7c0-14.5,6-27.8,15.6-37.1c8.9-8.5,20.6-13.8,33.6-13.8
				s24.9,5.2,33.6,13.8c0.9,0.9,1.8,1.9,2.7,2.9c0.4,0.3,0.6,0.7,0.9,1c0.2,0.2,0.4,0.5,0.6,0.7
				C117.3,112.1,121.6,123.4,121.7,135.6z"/>
		</g>
		<g>
			<path class="st2" d="M121.7,121.2v3.7c0,9.4-4,20.6-11.5,33c-4,6.6-9,13.5-14.9,20.5c-8.8,10.5-17.6,19.1-22.8,23.9
				c-5.2-4.8-14-13.3-22.7-23.7c-3.5-4.1-6.6-8.1-9.4-12.1c-0.3-0.4-0.6-0.8-0.8-1.1c-3.5-4.9-6.4-9.7-8.8-14.3
				c-0.1-0.2-0.2-0.4-0.3-0.6c-4.8-9.4-7.2-17.9-7.2-25.4v-3.7c0-14.5,6-27.8,15.6-37.1c8.9-8.5,20.6-13.8,33.6-13.8
				s24.9,5.2,33.6,13.8c0.9,0.9,1.8,1.9,2.7,2.9c0.4,0.3,0.6,0.7,0.9,1c0.2,0.2,0.4,0.5,0.6,0.7C117.3,97.7,121.6,109,121.7,121.2z"
				/>
		</g>
	</g>
	<path class="st3" d="M72.4,91.8c-15.6,0-28.2,12.6-28.2,28.2c0,5,1.3,9.8,3.6,13.9l-17.1,17.2c2.3,4.6,5.3,9.3,8.8,14.3l20.1-20.1
		c3.8,2,8.2,3.1,12.8,3.1c15.6,0,28.2-12.6,28.2-28.2S88,91.8,72.4,91.8z"/>
	<path class="st2" d="M64,100.3c-3.7,1.6-6.6,4.2-8.5,7.3c-0.9,1.5-0.1,3.6,1.6,3.9c0.1,0,0.2,0,0.3,0.1c1.1,0.2,2.1-0.3,2.7-1.3
		c1.4-2.2,3.4-4,6-5.1c2.8-1.2,5.7-1.3,8.4-0.6c1,0.3,2.1,0,2.7-0.9c0.1-0.1,0.1-0.2,0.2-0.3c1-1.4,0.3-3.5-1.4-3.9
		C72.2,98.4,67.9,98.6,64,100.3z"/>
</g>
<g class="st4">
	<path class="st5" d="M179.1,69.9h26.3c22.2,0,41.3,13.2,41.3,40.3s-19.1,40.3-41.3,40.3h-26.3V69.9z M204.1,136.8
		c13.8,0,26.8-7,26.8-26.7s-13-26.8-26.8-26.8h-9.5v53.5H204.1z"/>
	<path class="st5" d="M257,74.6c0-4.9,3.8-8.9,9-8.9c5.3,0,9.2,3.9,9.2,8.9c0,5.1-3.9,9-9.2,9C260.8,83.6,257,79.7,257,74.6z
		 M258.7,92.4h14.5v58h-14.5V92.4z"/>
	<path class="st5" d="M318.1,105.1c-8.2,0-15.5,6.8-15.5,24v21.3h-14.5v-58h14.5V103c2.9-6.6,10.5-11.5,17.5-11.5
		c2.1,0,4.6,0.3,6.3,0.9l-0.9,14C323.4,105.5,320.7,105.1,318.1,105.1z"/>
	<path class="st5" d="M388.1,125.2h-43c1.3,8.7,6.9,13.9,15.2,13.9c6.8,0,11.6-3.2,13.1-8.9l13.6,3.7c-3.2,10.9-13.3,17.4-26.9,17.4
		c-19.2,0-29.4-14.8-29.4-29.9s9.4-29.9,28.6-29.9c19.6,0,29.1,14.5,29.1,27.9C388.3,121.5,388.2,124.1,388.1,125.2z M372.8,114.6
		c-0.7-6.9-5.2-12.1-13.6-12.1c-7.1,0-12.2,4.3-13.8,12.1H372.8z"/>
	<path class="st5" d="M397,121.4c0-17.7,12.1-29.9,29.4-29.9c14.8,0,25.3,7.7,27.3,20l-14.1,2.8c-1-6.1-5.9-10.2-12.7-10.2
		c-9,0-14.8,6.8-14.8,17.4c0,10.6,5.9,17.4,14.8,17.4c6.8,0,11.3-3.7,12.7-9.9l14.1,2.9c-2.2,12.2-12.7,19.6-27.3,19.6
		C409.1,151.3,397,139.1,397,121.4z"/>
	<path class="st5" d="M489.6,151.3c-11.7,0-20.5-6.3-20.5-19.9v-26.8h-9.8V92.4h9.8v-17h14.5v17h14.6v12.2h-14.6V130
		c0,5.5,3,8.5,7.5,8.5c2.2,0,4.7-0.3,6.8-1.4l1,12.7C496,150.9,492.9,151.3,489.6,151.3z"/>
	<path class="st5" d="M505.6,121.4c0-17.3,12.7-29.9,30.2-29.9c17.6,0,30.2,12.7,30.2,29.9s-12.7,29.9-30.2,29.9
		C518.2,151.3,505.6,138.7,505.6,121.4z M551.5,121.4c0-10.4-6.3-17.4-15.6-17.4c-9.4,0-15.6,7-15.6,17.4s6.2,17.4,15.6,17.4
		C545.2,138.8,551.5,131.8,551.5,121.4z"/>
	<path class="st5" d="M607.9,105.1c-8.2,0-15.5,6.8-15.5,24v21.3h-14.5v-58h14.5V103c2.9-6.6,10.5-11.5,17.5-11.5
		c2.1,0,4.6,0.3,6.3,0.9l-0.9,14C613.2,105.5,610.5,105.1,607.9,105.1z"/>
	<path class="st5" d="M623.8,74.6c0-4.9,3.8-8.9,9-8.9c5.3,0,9.2,3.9,9.2,8.9c0,5.1-3.9,9-9.2,9C627.6,83.6,623.8,79.7,623.8,74.6z
		 M625.5,92.4H640v58h-14.5V92.4z"/>
	<path class="st5" d="M649.9,134.2l11.8-4.8c1.7,5.9,6.2,10.7,13.5,10.7c5.4,0,9-2.9,9-6.6c0-10.9-31.6-3.8-31.6-25.8
		c0-9.1,7.9-16.2,20.6-16.2c11.3,0,20.8,5.8,23.3,14.1l-11.7,4.9c-1.6-5.5-6.7-8.4-11.4-8.4c-4.6,0-7.7,2-7.7,5.3
		c0,10.2,31.9,2.1,31.9,25.8c0,10-9,18.1-22.3,18.1C661.2,151.3,652.8,142.7,649.9,134.2z"/>
	<path class="st5" d="M733.2,151.3c-11.7,0-20.5-6.3-20.5-19.9v-26.8h-9.8V92.4h9.8v-17h14.5v17h14.6v12.2h-14.6V130
		c0,5.5,3,8.5,7.5,8.5c2.2,0,4.7-0.3,6.8-1.4l1,12.7C739.6,150.9,736.5,151.3,733.2,151.3z"/>
</g>
</svg>
