<svg xmlns="http://www.w3.org/2000/svg" width="14" height="14" viewBox="338 272 14 14"><g data-name="Icon feather-search"><path d="m350.805 285.795-2.572-2.572a6.254 6.254 0 0 1-3.933 1.377 6.26 6.26 0 0 1-4.455-1.845A6.26 6.26 0 0 1 338 278.3a6.26 6.26 0 0 1 1.845-4.455A6.26 6.26 0 0 1 344.3 272a6.26 6.26 0 0 1 4.455 1.845 6.26 6.26 0 0 1 1.845 4.455c0 1.447-.484 2.82-1.377 3.933l2.572 2.572a.7.7 0 1 1-.99.99ZM339.4 278.3c0 2.702 2.198 4.9 4.9 4.9a4.884 4.884 0 0 0 3.411-1.385.71.71 0 0 1 .104-.104 4.883 4.883 0 0 0 1.385-3.41c0-2.703-2.198-4.9-4.9-4.9a4.906 4.906 0 0 0-4.9 4.9Z" fill="#6e6e6e" fill-rule="evenodd" data-name="Union 4"/></g></svg>