<svg xmlns="http://www.w3.org/2000/svg" xmlns:xlink="http://www.w3.org/1999/xlink" width="400" height="228" viewBox="0 0 400 228">
  <defs>
    <clipPath id="clip-_04_All_Categories">
      <rect width="400" height="228"/>
    </clipPath>
  </defs>
  <g id="_04_All_Categories" data-name="04_All Categories" clip-path="url(#clip-_04_All_Categories)">
    <rect width="400" height="228" fill="#fff"/>
    <g id="Rectangle_80" data-name="Rectangle 80" fill="#fff" stroke="#ebebef" stroke-width="1">
      <rect width="400" height="228" stroke="none"/>
      <rect x="0.5" y="0.5" width="399" height="227" fill="none"/>
    </g>
    <rect id="Rectangle_9" data-name="Rectangle 9" width="40" height="6" rx="3" transform="translate(25 30)" fill="#eaebed"/>
    <rect id="Rectangle_10" data-name="Rectangle 10" width="40" height="6" rx="3" transform="translate(75 30)" fill="#eaebed"/>
    <rect id="Rectangle_11" data-name="Rectangle 11" width="40" height="6" rx="3" transform="translate(125 30)" fill="#eaebed"/>
    <rect id="Rectangle_12" data-name="Rectangle 12" width="40" height="6" rx="3" transform="translate(175 30)" fill="#eaebed"/>
    <rect id="Rectangle_13" data-name="Rectangle 13" width="40" height="6" rx="3" transform="translate(225 30)" fill="#eaebed"/>
    <g id="Group_14" data-name="Group 14">
      <rect id="Rectangle_1459" data-name="Rectangle 1459" width="82" height="70" rx="2" transform="translate(25 51)" fill="#eaebed"/>
      <rect id="Rectangle_1459-2" data-name="Rectangle 1459" width="83" height="70" rx="2" transform="translate(114 51)" fill="#eaebed"/>
      <rect id="Rectangle_1459-3" data-name="Rectangle 1459" width="82" height="70" rx="2" transform="translate(204 51)" fill="#eaebed"/>
      <rect id="Rectangle_1459-4" data-name="Rectangle 1459" width="82" height="70" rx="2" transform="translate(293 51)" fill="#eaebed"/>
      <rect id="Rectangle_14" data-name="Rectangle 14" width="42" height="6" transform="translate(45 93)" fill="#d7d9de"/>
      <rect id="Rectangle_22" data-name="Rectangle 22" width="42" height="6" transform="translate(135 93)" fill="#d7d9de"/>
      <rect id="Rectangle_23" data-name="Rectangle 23" width="42" height="6" transform="translate(224 93)" fill="#d7d9de"/>
      <rect id="Rectangle_24" data-name="Rectangle 24" width="42" height="6" transform="translate(313 93)" fill="#d7d9de"/>
      <path id="compact-disc" d="M8,2a6,6,0,1,0,6,6A6,6,0,0,0,8,2ZM8,12.8A4.8,4.8,0,1,1,12.8,8,4.8,4.8,0,0,1,8,12.8ZM8,6.2A1.8,1.8,0,1,0,9.8,8,1.8,1.8,0,0,0,8,6.2ZM8,8.6A.6.6,0,1,1,8.6,8,.6.6,0,0,1,8,8.6Z" transform="translate(58 71)" fill="#acacb5"/>
      <path id="compact-disc-2" data-name="compact-disc" d="M8,2a6,6,0,1,0,6,6A6,6,0,0,0,8,2ZM8,12.8A4.8,4.8,0,1,1,12.8,8,4.8,4.8,0,0,1,8,12.8ZM8,6.2A1.8,1.8,0,1,0,9.8,8,1.8,1.8,0,0,0,8,6.2ZM8,8.6A.6.6,0,1,1,8.6,8,.6.6,0,0,1,8,8.6Z" transform="translate(148 71)" fill="#acacb5"/>
      <path id="compact-disc-3" data-name="compact-disc" d="M8,2a6,6,0,1,0,6,6A6,6,0,0,0,8,2ZM8,12.8A4.8,4.8,0,1,1,12.8,8,4.8,4.8,0,0,1,8,12.8ZM8,6.2A1.8,1.8,0,1,0,9.8,8,1.8,1.8,0,0,0,8,6.2ZM8,8.6A.6.6,0,1,1,8.6,8,.6.6,0,0,1,8,8.6Z" transform="translate(237 71)" fill="#acacb5"/>
      <path id="compact-disc-4" data-name="compact-disc" d="M8,2a6,6,0,1,0,6,6A6,6,0,0,0,8,2ZM8,12.8A4.8,4.8,0,1,1,12.8,8,4.8,4.8,0,0,1,8,12.8ZM8,6.2A1.8,1.8,0,1,0,9.8,8,1.8,1.8,0,0,0,8,6.2ZM8,8.6A.6.6,0,1,1,8.6,8,.6.6,0,0,1,8,8.6Z" transform="translate(326 71)" fill="#acacb5"/>
    </g>
    <g id="Group_15" data-name="Group 15" transform="translate(0 77)">
      <rect id="Rectangle_1459-5" data-name="Rectangle 1459" width="82" height="70" rx="2" transform="translate(25 51)" fill="#eaebed"/>
      <rect id="Rectangle_1459-6" data-name="Rectangle 1459" width="83" height="70" rx="2" transform="translate(114 51)" fill="#eaebed"/>
      <rect id="Rectangle_1459-7" data-name="Rectangle 1459" width="82" height="70" rx="2" transform="translate(204 51)" fill="#eaebed"/>
      <rect id="Rectangle_1459-8" data-name="Rectangle 1459" width="82" height="70" rx="2" transform="translate(293 51)" fill="#eaebed"/>
      <rect id="Rectangle_14-2" data-name="Rectangle 14" width="42" height="6" transform="translate(45 93)" fill="#d7d9de"/>
      <rect id="Rectangle_22-2" data-name="Rectangle 22" width="42" height="6" transform="translate(135 93)" fill="#d7d9de"/>
      <rect id="Rectangle_23-2" data-name="Rectangle 23" width="42" height="6" transform="translate(224 93)" fill="#d7d9de"/>
      <rect id="Rectangle_24-2" data-name="Rectangle 24" width="42" height="6" transform="translate(313 93)" fill="#d7d9de"/>
      <path id="compact-disc-5" data-name="compact-disc" d="M8,2a6,6,0,1,0,6,6A6,6,0,0,0,8,2ZM8,12.8A4.8,4.8,0,1,1,12.8,8,4.8,4.8,0,0,1,8,12.8ZM8,6.2A1.8,1.8,0,1,0,9.8,8,1.8,1.8,0,0,0,8,6.2ZM8,8.6A.6.6,0,1,1,8.6,8,.6.6,0,0,1,8,8.6Z" transform="translate(58 71)" fill="#acacb5"/>
      <path id="compact-disc-6" data-name="compact-disc" d="M8,2a6,6,0,1,0,6,6A6,6,0,0,0,8,2ZM8,12.8A4.8,4.8,0,1,1,12.8,8,4.8,4.8,0,0,1,8,12.8ZM8,6.2A1.8,1.8,0,1,0,9.8,8,1.8,1.8,0,0,0,8,6.2ZM8,8.6A.6.6,0,1,1,8.6,8,.6.6,0,0,1,8,8.6Z" transform="translate(148 71)" fill="#acacb5"/>
      <path id="compact-disc-7" data-name="compact-disc" d="M8,2a6,6,0,1,0,6,6A6,6,0,0,0,8,2ZM8,12.8A4.8,4.8,0,1,1,12.8,8,4.8,4.8,0,0,1,8,12.8ZM8,6.2A1.8,1.8,0,1,0,9.8,8,1.8,1.8,0,0,0,8,6.2ZM8,8.6A.6.6,0,1,1,8.6,8,.6.6,0,0,1,8,8.6Z" transform="translate(237 71)" fill="#acacb5"/>
      <path id="compact-disc-8" data-name="compact-disc" d="M8,2a6,6,0,1,0,6,6A6,6,0,0,0,8,2ZM8,12.8A4.8,4.8,0,1,1,12.8,8,4.8,4.8,0,0,1,8,12.8ZM8,6.2A1.8,1.8,0,1,0,9.8,8,1.8,1.8,0,0,0,8,6.2ZM8,8.6A.6.6,0,1,1,8.6,8,.6.6,0,0,1,8,8.6Z" transform="translate(326 71)" fill="#acacb5"/>
    </g>
  </g>
</svg>
